<svg width="34" height="20" viewBox="0 0 34 20" fill="none" xmlns="http://www.w3.org/2000/svg">
<path d="M4.71589 4.18603C5.61589 4.18603 6.38389 4.40803 7.01989 4.85203C7.65589 5.29603 8.09989 5.88403 8.35189 6.61603V0.910034H10.4219V14.23H8.35189V11.926C8.09989 12.658 7.65589 13.246 7.01989 13.69C6.38389 14.134 5.61589 14.356 4.71589 14.356C3.85189 14.356 3.07789 14.152 2.39389 13.744C1.72189 13.336 1.19389 12.748 0.809887 11.98C0.425887 11.212 0.233887 10.306 0.233887 9.26203C0.233887 8.23003 0.425887 7.33003 0.809887 6.56203C1.19389 5.79403 1.72189 5.20603 2.39389 4.79803C3.07789 4.39003 3.85189 4.18603 4.71589 4.18603ZM5.34589 5.98603C4.43389 5.98603 3.70189 6.28003 3.14989 6.86803C2.60989 7.44403 2.33989 8.24203 2.33989 9.26203C2.33989 10.282 2.60989 11.086 3.14989 11.674C3.70189 12.25 4.43389 12.538 5.34589 12.538C5.92189 12.538 6.43789 12.406 6.89389 12.142C7.34989 11.866 7.70989 11.482 7.97389 10.99C8.23789 10.498 8.36989 9.92203 8.36989 9.26203C8.36989 8.61403 8.23789 8.04403 7.97389 7.55203C7.70989 7.04803 7.34989 6.66403 6.89389 6.40003C6.43789 6.12403 5.92189 5.98603 5.34589 5.98603Z" fill="#7CC9FF"/>
<path d="M22.1004 8.79403C22.1004 9.13003 22.0764 9.42403 22.0284 9.67603H14.3964C14.4324 10.696 14.7144 11.452 15.2424 11.944C15.7704 12.436 16.4244 12.682 17.2044 12.682C17.8884 12.682 18.4644 12.508 18.9324 12.16C19.4124 11.812 19.7064 11.35 19.8144 10.774H22.0104C21.8784 11.47 21.6024 12.088 21.1824 12.628C20.7624 13.168 20.2164 13.594 19.5444 13.906C18.8724 14.206 18.1224 14.356 17.2944 14.356C16.3344 14.356 15.4824 14.152 14.7384 13.744C14.0064 13.336 13.4304 12.748 13.0104 11.98C12.5904 11.212 12.3804 10.306 12.3804 9.26203C12.3804 8.23003 12.5904 7.33003 13.0104 6.56203C13.4304 5.79403 14.0064 5.20603 14.7384 4.79803C15.4824 4.39003 16.3344 4.18603 17.2944 4.18603C18.2664 4.18603 19.1124 4.39003 19.8324 4.79803C20.5644 5.19403 21.1224 5.74603 21.5064 6.45403C21.9024 7.15003 22.1004 7.93003 22.1004 8.79403ZM20.0304 8.74003C20.0544 8.09203 19.9404 7.55203 19.6884 7.12003C19.4484 6.67603 19.1124 6.35203 18.6804 6.14803C18.2604 5.93203 17.7984 5.82403 17.2944 5.82403C16.4904 5.82403 15.8184 6.07003 15.2784 6.56203C14.7384 7.05403 14.4444 7.78003 14.3964 8.74003H20.0304Z" fill="#7CC9FF"/>
<path d="M28.0596 4.18603C28.9596 4.18603 29.7276 4.40803 30.3636 4.85203C30.9996 5.29603 31.4496 5.88403 31.7136 6.61603V4.31203H33.7656V14.338C33.7656 15.262 33.5736 16.078 33.1896 16.786C32.8176 17.506 32.2776 18.07 31.5696 18.478C30.8616 18.886 30.0216 19.09 29.0496 19.09C27.6576 19.09 26.5296 18.76 25.6656 18.1C24.8136 17.44 24.2796 16.546 24.0636 15.418H26.0976C26.2656 16.006 26.5896 16.462 27.0696 16.786C27.5496 17.122 28.1616 17.29 28.9056 17.29C29.7216 17.29 30.3936 17.038 30.9216 16.534C31.4496 16.03 31.7136 15.298 31.7136 14.338V11.926C31.4496 12.658 30.9996 13.246 30.3636 13.69C29.7276 14.134 28.9596 14.356 28.0596 14.356C27.1956 14.356 26.4216 14.152 25.7376 13.744C25.0656 13.336 24.5376 12.748 24.1536 11.98C23.7696 11.212 23.5776 10.306 23.5776 9.26203C23.5776 8.23003 23.7696 7.33003 24.1536 6.56203C24.5376 5.79403 25.0656 5.20603 25.7376 4.79803C26.4216 4.39003 27.1956 4.18603 28.0596 4.18603ZM28.6896 5.98603C27.7776 5.98603 27.0456 6.28003 26.4936 6.86803C25.9536 7.44403 25.6836 8.24203 25.6836 9.26203C25.6836 10.282 25.9536 11.086 26.4936 11.674C27.0456 12.25 27.7776 12.538 28.6896 12.538C29.2656 12.538 29.7816 12.406 30.2376 12.142C30.6936 11.866 31.0536 11.482 31.3176 10.99C31.5816 10.498 31.7136 9.92203 31.7136 9.26203C31.7136 8.61403 31.5816 8.04403 31.3176 7.55203C31.0536 7.04803 30.6936 6.66403 30.2376 6.40003C29.7816 6.12403 29.2656 5.98603 28.6896 5.98603Z" fill="#7CC9FF"/>
</svg>
