<svg width="10" height="12" viewBox="0 0 10 12" fill="none" xmlns="http://www.w3.org/2000/svg">
<path d="M9.86014 5.52304C9.86014 5.85904 9.83614 6.15304 9.78814 6.40504H2.15614C2.19214 7.42504 2.47414 8.18104 3.00214 8.67304C3.53014 9.16504 4.18414 9.41104 4.96414 9.41104C5.64814 9.41104 6.22414 9.23704 6.69214 8.88904C7.17214 8.54104 7.46614 8.07904 7.57414 7.50304H9.77014C9.63814 8.19904 9.36214 8.81704 8.94214 9.35704C8.52214 9.89704 7.97614 10.323 7.30414 10.635C6.63214 10.935 5.88214 11.085 5.05414 11.085C4.09414 11.085 3.24214 10.881 2.49814 10.473C1.76614 10.065 1.19014 9.47704 0.770137 8.70904C0.350137 7.94104 0.140137 7.03504 0.140137 5.99104C0.140137 4.95904 0.350137 4.05904 0.770137 3.29104C1.19014 2.52304 1.76614 1.93504 2.49814 1.52704C3.24214 1.11904 4.09414 0.915039 5.05414 0.915039C6.02614 0.915039 6.87214 1.11904 7.59214 1.52704C8.32414 1.92304 8.88214 2.47504 9.26614 3.18304C9.66214 3.87904 9.86014 4.65904 9.86014 5.52304ZM7.79014 5.46904C7.81414 4.82104 7.70014 4.28104 7.44814 3.84904C7.20814 3.40504 6.87214 3.08104 6.44014 2.87704C6.02014 2.66104 5.55814 2.55304 5.05414 2.55304C4.25014 2.55304 3.57814 2.79904 3.03814 3.29104C2.49814 3.78304 2.20414 4.50904 2.15614 5.46904H7.79014Z" fill="#7CC9FF"/>
</svg>
