<svg width="24" height="16" viewBox="0 0 24 16" fill="none" xmlns="http://www.w3.org/2000/svg">
<path d="M3.76233 4.89506C4.92633 4.89506 5.85633 5.19506 6.55233 5.79506C7.26033 6.38306 7.69233 7.17506 7.84833 8.17106H5.90433C5.82033 7.63106 5.58633 7.19906 5.20233 6.87506C4.83033 6.53906 4.33233 6.37106 3.70833 6.37106C3.19233 6.37106 2.79033 6.49706 2.50233 6.74906C2.22633 6.98906 2.08833 7.31906 2.08833 7.73906C2.08833 8.05106 2.19033 8.30306 2.39433 8.49506C2.59833 8.68706 2.85033 8.83706 3.15033 8.94506C3.46233 9.05306 3.90033 9.17306 4.46433 9.30506C5.20833 9.47306 5.80833 9.64706 6.26433 9.82706C6.73233 10.0071 7.12833 10.2951 7.45233 10.6911C7.78833 11.0751 7.95633 11.6031 7.95633 12.2751C7.95633 13.1031 7.63833 13.7751 7.00233 14.2911C6.37833 14.8071 5.53233 15.0651 4.46433 15.0651C3.22833 15.0651 2.22633 14.7771 1.45833 14.2011C0.702332 13.6251 0.246332 12.8211 0.090332 11.7891H2.08833C2.14833 12.3291 2.38833 12.7671 2.80833 13.1031C3.22833 13.4391 3.78033 13.6071 4.46433 13.6071C4.95633 13.6071 5.34033 13.4811 5.61633 13.2291C5.90433 12.9651 6.04833 12.6351 6.04833 12.2391C6.04833 11.8911 5.94033 11.6151 5.72433 11.4111C5.50833 11.2071 5.23833 11.0511 4.91433 10.9431C4.59033 10.8231 4.14633 10.7031 3.58233 10.5831C2.86233 10.4151 2.27433 10.2471 1.81833 10.0791C1.37433 9.91106 0.990332 9.64106 0.666332 9.26906C0.354332 8.88506 0.198332 8.36906 0.198332 7.72106C0.198332 6.88106 0.510332 6.20306 1.13433 5.68706C1.77033 5.15906 2.64633 4.89506 3.76233 4.89506Z" fill="#7CC9FF"/>
<path d="M9.7261 2.14106C9.7261 1.79306 9.8461 1.50506 10.0861 1.27706C10.3261 1.04906 10.6441 0.935059 11.0401 0.935059C11.4361 0.935059 11.7541 1.04906 11.9941 1.27706C12.2461 1.50506 12.3721 1.79306 12.3721 2.14106C12.3721 2.48906 12.2461 2.77106 11.9941 2.98706C11.7541 3.20306 11.4361 3.31106 11.0401 3.31106C10.6441 3.31106 10.3261 3.20306 10.0861 2.98706C9.8461 2.77106 9.7261 2.48906 9.7261 2.14106ZM12.0661 5.02106V14.9391H10.0141V5.02106H12.0661Z" fill="#7CC9FF"/>
<path d="M20.0933 4.85906C21.2453 4.85906 22.1693 5.23106 22.8653 5.97506C23.5613 6.71906 23.9093 7.78106 23.9093 9.16106V14.9391H21.8573V9.37706C21.8573 8.48906 21.6293 7.80506 21.1733 7.32506C20.7173 6.83306 20.0933 6.58706 19.3013 6.58706C18.4853 6.58706 17.8313 6.85106 17.3393 7.37906C16.8473 7.89506 16.6013 8.65706 16.6013 9.66506V14.9391H14.5493V5.02106H16.6013V7.19906C16.8653 6.45506 17.3093 5.87906 17.9333 5.47106C18.5573 5.06306 19.2773 4.85906 20.0933 4.85906Z" fill="#7CC9FF"/>
</svg>
